<svg xmlns="http://www.w3.org/2000/svg" xmlns:xlink="http://www.w3.org/1999/xlink">

    <!-- No Color Icons: These icons have no set fill color. Fill color can vary based on designs and will be set via CSS. -->

    <symbol width="100%" height="auto" viewBox="0 0 24 24" id="icon_search">
        <polygon fill="none" points="0 0 24 0 24 24 0 24"/>
        <path fill-rule="nonzero" d="M15.5,14 L14.71,14 L14.43,13.73 C15.41,12.59 16,11.11 16,9.5 C16,5.91 13.09,3 9.5,3 C5.91,3 3,5.91 3,9.5 C3,13.09 5.91,16 9.5,16 C11.11,16 12.59,15.41 13.73,14.43 L14,14.71 L14,15.5 L19,20.49 L20.49,19 L15.5,14 Z M9.5,14 C7.01,14 5,11.99 5,9.5 C5,7.01 7.01,5 9.5,5 C11.99,5 14,7.01 14,9.5 C14,11.99 11.99,14 9.5,14 Z"/>
    </symbol>

    <symbol width="100%" height="auto" viewBox="0 0 24 24" id="icon_proofs">
        <polygon fill="none" points="0 0 24 0 24 24 0 24"/>
        <path fill-rule="nonzero" d="M19,3 L14.82,3 C14.4,1.84 13.3,1 12,1 C10.7,1 9.6,1.84 9.18,3 L5,3 C3.9,3 3,3.9 3,5 L3,19 C3,20.1 3.9,21 5,21 L19,21 C20.1,21 21,20.1 21,19 L21,5 C21,3.9 20.1,3 19,3 Z M12,3 C12.55,3 13,3.45 13,4 C13,4.55 12.55,5 12,5 C11.45,5 11,4.55 11,4 C11,3.45 11.45,3 12,3 Z M10,17 L6,13 L7.41,11.59 L10,14.17 L16.59,7.58 L18,9 L10,17 Z"/>
    </symbol>

    <symbol width="100%" height="auto" viewBox="0 0 24 24" id="icon_expand">
        <polygon fill="none" points="0 0 24 0 24 24 0 24"/>
        <path fill-rule="nonzero" d="M5,7.41 L6.41,6 L12.41,12 L6.41,18 L5,16.59 L9.58,12 L5,7.41 Z M11,7.41 L12.41,6 L18.41,12 L12.41,18 L11,16.59 L15.58,12 L11,7.41 Z"/>
    </symbol>
</svg>
