<svg xmlns="http://www.w3.org/2000/svg" xmlns:xlink="http://www.w3.org/1999/xlink">

    <!-- No Color Icons: These icons have no set fill color. Fill color can vary based on designs and will be set via CSS. -->

    <symbol width="100%" height="auto" viewBox="0 0 64 64" id="icon_search">
        <path d="M40.985 0C28.284 0 17.961 10.324 17.961 23.023c0 4.805 1.484 9.268 4.013 12.965L.947 57.015a3.217 3.217 0 000 4.537l1.512 1.512a3.217 3.217 0 004.537 0l21.026-21.026a22.88 22.88 0 0012.963 4.012C53.677 46.051 64 35.713 64 23.023 64 10.324 53.677 0 40.985 0zm.001 39.239c-8.945 0-16.225-7.268-16.225-16.216 0-8.945 7.28-16.225 16.225-16.225s16.217 7.28 16.217 16.225c0 8.949-7.272 16.216-16.217 16.216z"/>
    </symbol>
    <symbol width="100%" height="auto" viewBox="0 0 64 64" id="icon_achievements">
        <path d="M51.492 3.677c-5.941 1.654-14.886 3.906-19.494 3.906-4.611 0-13.553-2.252-19.495-3.906-2.937-.815-5.875 1.255-5.875 4.144v34.684c0 1.336.657 2.597 1.778 3.415l20.792 15.176a4.765 4.765 0 002.8.904c.989 0 1.981-.3 2.805-.904L55.594 45.92c1.122-.818 1.778-2.08 1.778-3.415V7.823c-.002-2.888-2.942-4.961-5.88-4.146z" id="achievement-shield-1" />
    </symbol>
    <symbol width="100%" height="auto" viewBox="0 0 64 64" id="icon_itemLevel">
        <path xmlns="http://www.w3.org/2000/svg" d="M13.593 18.962l-6.729 7.035c-.135.142-.061.383.128.417l3.932.683a.23.23 0 00.205-.068l3.428-3.584 7.684 7.93 3.927-4.106.346-.362 3.725-3.896-7.684-7.928 3.646-3.814a.252.252 0 00.066-.213l-.654-4.112a.232.232 0 00-.398-.133l-6.853 7.167L7.485 4.401V.428A.42.42 0 007.075 0H.791a.419.419 0 00-.409.428v6.571c0 .236.183.427.409.427h3.512l9.29 11.536zm27.505 15.599l-3.8 3.972-.24.251-3.958 4.139 18.652 19.411L61.562 64l-1.671-9.882-18.793-19.557zM63.209.017h-6.283a.418.418 0 00-.409.428v3.672L45.483 13.83l-6.728-7.034c-.135-.143-.366-.065-.397.132l-.654 4.111a.253.253 0 00.066.214l3.428 3.585L4.002 53.726 2.408 63.983l9.451-1.748 37.336-39.036 3.646 3.812a.23.23 0 00.205.069l3.931-.684c.188-.031.263-.274.128-.415l-6.854-7.166L59.41 7.442h3.799a.418.418 0 00.409-.428V.444a.418.418 0 00-.409-.427z" />
    </symbol>

</svg>
